<svg xmlns="http://www.w3.org/2000/svg" viewBox="0 0 96 96"><defs><style>.cls-1{fill:#8e94fa;}.cls-2{opacity:0.3;}.cls-3{fill:#fff;}.cls-4{fill:#1e1e1e;}.cls-5{opacity:0.25;}.cls-6{fill:#4d4d4d;}.cls-7{fill:#ffc388;}.cls-8{fill:#ccc;}</style></defs><title>icon bang fajri-ungu</title><g id="Data_not_found" data-name="Data not found"><path class="cls-1" d="M62.68,72.67H28.3a4.8,4.8,0,0,1-4.8-4.81V20.8A4.8,4.8,0,0,1,28.3,16H50.5a4.8,4.8,0,0,1,3.39,1.41L66.07,29.6A4.81,4.81,0,0,1,67.48,33V67.86A4.8,4.8,0,0,1,62.68,72.67Z"/><g class="cls-2"><path class="cls-3" d="M27.61,16.08c-1.62,0-2.51.81-3.37,2.17a4.73,4.73,0,0,0-.74,2.55V68.71a4,4,0,0,0,4,4l.24-.08V16.08Z"/></g><g class="cls-2"><path class="cls-4" d="M67.4,32.21H56.08a4.8,4.8,0,0,1-4.8-4.8V16.08A5,5,0,0,0,50.5,16H48.69V28.07a6.75,6.75,0,0,0,6.74,6.76h7.16a1.34,1.34,0,0,1,1.34,1.34v36.5c2.7,0,3.55-2.2,3.55-4.91V32.21Z"/></g><g class="cls-5"><path class="cls-4" d="M53.89,17.41a4.78,4.78,0,0,0-2.61-1.33V27.41a4.8,4.8,0,0,0,4.8,4.8H67.4a4.85,4.85,0,0,0-1.33-2.61Z"/></g><path class="cls-1" d="M53.89,17.41a4.78,4.78,0,0,0-2.61-1.33V27.41a4.8,4.8,0,0,0,4.8,4.8H67.4a4.85,4.85,0,0,0-1.33-2.61Z"/><path class="cls-6" d="M62.68,73.42H28.3a5.56,5.56,0,0,1-5.55-5.56V20.8a5.56,5.56,0,0,1,5.55-5.55H50.5a5.51,5.51,0,0,1,3.92,1.63L66.6,29.07A5.51,5.51,0,0,1,68.23,33V67.86A5.56,5.56,0,0,1,62.68,73.42ZM28.3,16.75a4.06,4.06,0,0,0-4.05,4.05V67.86a4.06,4.06,0,0,0,4.05,4.06H62.68a4.06,4.06,0,0,0,4.05-4.06V33a4.06,4.06,0,0,0-1.19-2.87L53.36,17.94a4,4,0,0,0-2.86-1.19Z"/><path class="cls-6" d="M67.19,33H56.08a5.56,5.56,0,0,1-5.55-5.55V16.16a.75.75,0,1,1,1.5,0V27.41a4.06,4.06,0,0,0,4,4.05H67.19a.75.75,0,0,1,0,1.5Z"/><path class="cls-6" d="M43.86,27.49H31.07a.75.75,0,0,1,0-1.5H43.86a.75.75,0,0,1,0,1.5Z"/><path class="cls-6" d="M43.86,33.9H31.07a.75.75,0,0,1,0-1.5H43.86a.75.75,0,0,1,0,1.5Z"/><path class="cls-6" d="M59.24,40.3H31.07a.75.75,0,0,1,0-1.5H59.24a.75.75,0,0,1,0,1.5Z"/><path class="cls-6" d="M59.24,46.7H51.71a.75.75,0,1,1,0-1.5h7.53a.75.75,0,0,1,0,1.5Z"/><path class="cls-6" d="M38.71,46.7H31.07a.75.75,0,0,1,0-1.5h7.64a.75.75,0,0,1,0,1.5Z"/><path class="cls-7" d="M72.21,77.28l-2.42,2.43a1,1,0,0,1-1.39,0l-9.93-9.93a1,1,0,0,1,0-1.4L60.9,66a1,1,0,0,1,1.39,0l9.92,9.93A1,1,0,0,1,72.21,77.28Z"/><path class="cls-8" d="M37.28,44.75a11.93,11.93,0,1,0,16.86,0A11.94,11.94,0,0,0,37.28,44.75ZM51.34,58.81a8,8,0,1,1,0-11.25A8,8,0,0,1,51.34,58.81Z"/><g class="cls-2"><ellipse class="cls-3" cx="45.71" cy="53.18" rx="7.96" ry="7.97"/></g><path class="cls-6" d="M45.71,65.87a12.69,12.69,0,0,1-9-21.65h0a12.59,12.59,0,0,1,9-3.72h0a12.55,12.55,0,0,1,9,3.72,12.7,12.7,0,0,1,0,17.93A12.55,12.55,0,0,1,45.71,65.87Zm-7.9-20.59a11.21,11.21,0,0,0,0,15.81,11.15,11.15,0,0,0,15.8,0,11.19,11.19,0,0,0,0-15.81A11.06,11.06,0,0,0,45.71,42h0a11.07,11.07,0,0,0-7.9,3.28ZM45.7,61.9h0a8.61,8.61,0,0,1-6.15-2.55,8.75,8.75,0,0,1,0-12.33,8.7,8.7,0,0,1,12.32,0A8.72,8.72,0,0,1,45.7,61.9ZM45.7,46a7.16,7.16,0,0,0-5.09,2.11,7.24,7.24,0,0,0,0,10.21,7.21,7.21,0,0,0,10.2,0l.53.53-.53-.53A7.22,7.22,0,0,0,45.7,46Z"/><g class="cls-5"><path class="cls-4" d="M71.25,78.25,59.93,66.92c.66-.66,2.2-1.13,2.85-.47l8.94,8.94C72.37,76.05,71.91,77.59,71.25,78.25Z"/></g><path class="cls-6" d="M69.09,80.75a1.7,1.7,0,0,1-1.22-.51l-9.93-9.93a1.74,1.74,0,0,1,0-2.46l2.43-2.42a1.69,1.69,0,0,1,1.22-.51h0a1.72,1.72,0,0,1,1.23.51l9.92,9.93a1.73,1.73,0,0,1,0,2.45h0l-2.42,2.43A1.73,1.73,0,0,1,69.09,80.75Zm-7.5-14.33a.23.23,0,0,0-.16.07L59,68.91a.25.25,0,0,0,0,.34l9.93,9.93a.23.23,0,0,0,.33,0l2.42-2.42a.25.25,0,0,0,0-.34l-9.92-9.93a.22.22,0,0,0-.17-.07ZM72.21,77.28h0Z"/><path class="cls-6" d="M59.37,67.6a.71.71,0,0,1-.53-.22l-5-5a.75.75,0,1,1,1.06-1.06l5,5a.75.75,0,0,1,0,1.06A.74.74,0,0,1,59.37,67.6Z"/><path class="cls-6" d="M48.51,51a2.66,2.66,0,0,1-1.39,2.45,1.44,1.44,0,0,0-.83,1.47.75.75,0,0,1-1.5,0,2.77,2.77,0,0,1,1.44-2.61A1.29,1.29,0,0,0,47,51c0-.36-.27-1-1.29-1a1.17,1.17,0,0,0-1.28,1.13.75.75,0,0,1-1.5,0,2.62,2.62,0,0,1,2.78-2.53,2.85,2.85,0,0,1,2.08.76A2.32,2.32,0,0,1,48.51,51Zm-2.15,6a.76.76,0,0,1-.82.72.72.72,0,1,1,0-1.43A.76.76,0,0,1,46.36,57Z"/></g></svg>