<?xml version="1.0" encoding="utf-8"?>
<!-- Generator: Adobe Illustrator 16.0.0, SVG Export Plug-In . SVG Version: 6.00 Build 0)  -->
<!DOCTYPE svg PUBLIC "-//W3C//DTD SVG 1.1//EN" "http://www.w3.org/Graphics/SVG/1.1/DTD/svg11.dtd">
<svg version="1.1" id="Layer_1" xmlns="http://www.w3.org/2000/svg" xmlns:xlink="http://www.w3.org/1999/xlink" x="0px" y="0px"
	 width="500px" height="500px" viewBox="0 0 500 500" enable-background="new 0 0 500 500" xml:space="preserve">
<path fill="#37C186" d="M404.153,272.215c0,0,24.13-1.063,20.1-37.087c-1.596-20.33-15.91-37.41-35.647-42.543H239.1
	c0,0,11.468-67.625,13.8-85.083c2.33-17.455-16.064-55.639-49.415-79.635c-33.356-23.995-50.601,0-50.601,0l8.048,79.635
	l-74.75,141.807l-15.529,9.542v4.071c-0.434-0.541-0.933-0.979-1.383-1.506v210.598h13.786l39.367,10.781l223.071-0.048
	c0,0,26.47-12.01,31.059-28.368c4.59-16.359-17.258-34.896-9.209-34.896s31.051-16.376,36.803-30.547
	c5.757-14.184-6.896-40.356-6.896-40.356s31.051-9.813,33.35-33.813C432.905,290.751,404.153,272.215,404.153,272.215z"/>
<g enable-background="new    ">
	<path fill="#F9F9F9" d="M213.313,283.324h-18.311v-9.072h-0.291c-4.536,7.02-10.604,10.528-18.197,10.528
		c-13.795,0-20.694-8.354-20.694-25.063v-35.921h18.312v34.302c0,8.408,3.333,12.613,10,12.613c3.293,0,5.931-1.152,7.906-3.46
		c1.975-2.308,2.966-5.438,2.966-9.392v-34.064h18.311L213.313,283.324L213.313,283.324z"/>
	<path fill="#F9F9F9" d="M323.303,283.324H304.99v-33.95c0-8.642-3.174-12.962-9.529-12.962c-3.025,0-5.488,1.298-7.386,3.895
		c-1.897,2.596-2.849,5.832-2.849,9.71v33.308h-18.371v-34.299c0-8.409-3.116-12.613-9.356-12.613c-3.144,0-5.646,1.24-7.524,3.719
		c-1.882,2.482-2.822,5.852-2.822,10.115v33.079h-18.371v-59.529h18.371v9.3h0.236c1.898-3.178,4.563-5.762,7.982-7.758
		c3.438-1.996,7.184-2.994,11.256-2.994c8.409,0,14.167,3.7,17.262,11.104c4.54-7.403,11.206-11.104,20.008-11.104
		c12.939,0,19.409,7.983,19.409,23.95L323.303,283.324L323.303,283.324z"/>
	<path fill="#F9F9F9" d="M356.439,276.404h-0.229v6.92h-18.372v-88.13h18.372v37.553h0.229c4.532-6.936,10.985-10.404,19.354-10.404
		c7.672,0,13.587,2.635,17.732,7.905c4.147,5.273,6.216,12.479,6.216,21.623c0,9.923-2.422,17.89-7.265,23.895
		c-4.842,6.016-11.318,9.017-19.416,9.017C365.74,284.779,360.2,281.992,356.439,276.404z M355.915,251.29v6.104
		c0,3.844,1.104,7.02,3.313,9.537c2.207,2.521,5.036,3.777,8.48,3.777c4.188,0,7.435-1.619,9.739-4.857
		c2.31-3.229,3.461-7.818,3.461-13.742c0-4.923-1.063-8.771-3.173-11.542c-2.107-2.772-5.123-4.155-9.032-4.155
		c-3.68,0-6.737,1.375-9.158,4.127S355.915,246.875,355.915,251.29z"/>
</g>
<g>
	<path fill="#FFFFFF" d="M202.933,467.551h-40.354v-19.845h-0.54c-9.27,15.476-22.99,23.215-41.166,23.215
		c-13.407,0-23.955-3.795-31.652-11.403c-7.688-7.604-11.538-17.749-11.538-30.438c0-26.813,15.881-42.29,47.645-46.428
		l37.521-4.998c0-15.116-8.188-22.676-24.563-22.676c-16.467,0-32.122,4.906-46.971,14.717v-32.121
		c5.938-3.061,14.059-5.76,24.36-8.1s19.685-3.512,28.142-3.512c39.411,0,59.117,19.655,59.117,58.985L202.933,467.551
		L202.933,467.551z M162.848,411.404v-9.316l-25.104,3.238c-13.856,1.799-20.785,8.058-20.785,18.757
		c0,4.859,1.685,8.852,5.063,11.942c3.371,3.105,7.938,4.66,13.697,4.66c8.008,0,14.531-2.766,19.571-8.295
		C160.328,426.848,162.848,419.861,162.848,411.404z"/>
</g>
<g>
	<path fill="#F9F9F9" d="M165.436,305.082H99.167v-15.295h23.66v-68.069h18.834v68.069h23.773L165.436,305.082L165.436,305.082z"/>
</g>
<g>
	<g enable-background="new    ">
		<path fill="#FFFFFF" d="M355.852,333.091H271.51l83.65,109.077v26.798H206.749v-40.021h79.53l-88.292-113.377v-22.5H355.85
			L355.852,333.091L355.852,333.091z"/>
	</g>
	<rect x="355.278" y="293.061" fill="#FFFFFF" width="62.511" height="40.03"/>
</g>
</svg>
